<svg width="348" height="152" viewBox="0 0 348 152" fill="none" xmlns="http://www.w3.org/2000/svg">
  <defs>
  <filter id="shadow-card" x="0" y="0" width="348" height="152" filterUnits="userSpaceOnUse" color-interpolation-filters="sRGB">
    <feFlood flood-opacity="0" result="BackgroundImageFix"></feFlood>
    <feColorMatrix in="SourceAlpha" type="matrix" values="0 0 0 0 0 0 0 0 0 0 0 0 0 0 0 0 0 0 127 0" result="hardAlpha"></feColorMatrix>
    <feOffset dy="4"></feOffset>
    <feGaussianBlur stdDeviation="2"></feGaussianBlur>
    <feComposite in2="hardAlpha" operator="out"></feComposite>
    <feColorMatrix type="matrix" values="0 0 0 0 0 0 0 0 0 0 0 0 0 0 0 0 0 0 0.25 0"></feColorMatrix>
    <feBlend mode="normal" in2="BackgroundImageFix" result="effect1_dropShadow"></feBlend>
    <feBlend mode="normal" in="SourceGraphic" in2="effect1_dropShadow" result="shape"></feBlend>
  </filter>
    <linearGradient id="grad-card" x1="0.00%" y1="0.00%" x2="100.00%" y2="100.00%">
      <stop offset="0.00%" stop-color="#241B47"></stop>
      <stop offset="100.00%" stop-color="#1B1438"></stop>
    </linearGradient>
    <clipPath id="clip-card"><path d="M49,4 L344,4 L344,99 A45,45 0 0 1 299,144 L4,144 L4,49 A45,45 0 0 1 49,4 Z"></path></clipPath>
    <radialGradient id="grad-card-glow" cx="80%" cy="110%" r="60%">
      <stop offset="0%" stop-color="#8948DD" stop-opacity="0.55"></stop>
      <stop offset="100%" stop-color="#8948DD" stop-opacity="0"></stop>
    </radialGradient>
  </defs>
  <g filter="url(#shadow-card)">
    <path d="M49,4 L344,4 L344,99 A45,45 0 0 1 299,144 L4,144 L4,49 A45,45 0 0 1 49,4 Z" fill="url(#grad-card)"></path>
    <rect x="4" y="4" width="340" height="140" fill="url(#grad-card-glow)" clip-path="url(#clip-card)"></rect>
  </g>
</svg>