<svg width="316" height="254" viewBox="0 0 316 254" fill="none" xmlns="http://www.w3.org/2000/svg">
<path d="M69.1517 156.271C51.7145 141.904 93.4044 134.598 116.43 133.051C116.901 133.02 117.316 133.332 117.449 133.784C124.367 157.3 141.945 166.844 150 169.132C130.732 171.105 86.7912 170.806 69.1517 156.271Z" fill="#1E1A34"/>
<path d="M167 70.5C192.071 70.5 212.5 91.7069 212.5 118C212.5 144.293 192.071 165.5 167 165.5C141.929 165.5 121.5 144.293 121.5 118C121.5 91.7069 141.929 70.5 167 70.5Z" stroke="#1E1A34" stroke-width="3"/>
<path d="M167 64.5C195.391 64.5 218.5 88.3999 218.5 118C218.5 147.6 195.391 171.5 167 171.5C138.609 171.5 115.5 147.6 115.5 118C115.5 88.3999 138.609 64.5 167 64.5Z" stroke="#1E1A34" stroke-width="3"/>
<ellipse cx="167" cy="78.5" rx="2" ry="2.5" fill="#1E1A34"/>
<ellipse cx="167" cy="158.5" rx="2" ry="2.5" fill="#1E1A34"/>
<circle cx="206.5" cy="118.5" r="2.5" fill="#1E1A34"/>
<circle cx="128.5" cy="118.5" r="2.5" fill="#1E1A34"/>
<circle cx="167" cy="119" r="4.5" stroke="#1E1A34" stroke-width="3"/>
<path d="M148 119H162" stroke="#1E1A34" stroke-width="3" stroke-linecap="round"/>
<path d="M82 80C80.3421 79.7333 76.6211 78.96 75 78" stroke="#1E1A34" stroke-width="3" stroke-linecap="round"/>
<path d="M124 86.7194C118.755 87.2618 106.945 87.4633 97 83" stroke="#1E1A34" stroke-width="3" stroke-linecap="round"/>
<path d="M114 114.929C100.349 115.258 71.3453 114.574 59 110" stroke="#1E1A34" stroke-width="3" stroke-linecap="round"/>
<path d="M167 114V87" stroke="#1E1A34" stroke-width="3" stroke-linecap="round"/>
<path d="M216.506 101.902C222.573 102.309 235.097 105.768 233.923 97.8329C233.35 93.9589 229.562 93.0856 227.274 93.1217C226.908 93.1275 226.558 92.9648 226.341 92.67C223.688 89.0716 217.437 83.9927 211 89.2847" stroke="#1E1A34" stroke-width="3" stroke-linecap="round"/>
</svg>
