<svg width="286" height="247" viewBox="0 0 286 247" fill="none" xmlns="http://www.w3.org/2000/svg">
<path d="M54.219 188C56.234 182.328 55.3827 177.296 54.2189 170.422C52.7643 161.829 50.3398 142.535 62.6238 130.213C72.451 120.356 83.6359 115.297 88 114" stroke="black" stroke-width="3" stroke-linecap="round"/>
<path d="M79 188C79.7027 185.508 86.6114 174.671 85.733 167.36C85.4169 165.28 85.6382 160.496 90 158" stroke="black" stroke-width="3" stroke-linecap="round"/>
<path d="M75 138.988C78.2451 133.514 87.0532 126.375 94.007 125.185C100.961 123.995 101.576 128.849 100.679 130.909C99.3342 134 96.4071 137.417 90.5528 143.924C84.753 150.37 81.5867 162.306 81.2176 168" stroke="black" stroke-width="3" stroke-linecap="round"/>
<path d="M193 120C188.361 116.202 176.822 109.481 167.784 112.977C166.965 113.289 165.262 114.756 165 118.127" stroke="black" stroke-width="3" stroke-linecap="round"/>
<path d="M183.202 154C174.196 143.76 168.982 135.663 170.167 125.423C170.827 119.716 174.099 117.362 177.094 120.212C181.069 123.994 184.15 128.757 188.478 130.662C189.326 131.059 192.018 131.853 196 131.853" stroke="black" stroke-width="3" stroke-linecap="round"/>
<path d="M216 177C215.56 175.27 214.647 169.735 215.175 165.324C215.835 159.811 215.238 139 206 133" stroke="black" stroke-width="3" stroke-linecap="round"/>
<path d="M215 122.079L158.801 118.024C158.578 118.008 158.346 118.031 158.132 118.092C150.024 120.411 153.241 124.918 156.18 127.428C156.477 127.681 156.847 127.826 157.236 127.861L169.742 129" stroke="black" stroke-width="3" stroke-linecap="round"/>
<path d="M215 133L196 132" stroke="black" stroke-width="3" stroke-linecap="round"/>
<ellipse cx="215" cy="128" rx="5" ry="7" fill="black"/>
<path d="M208.415 131.548C205.514 127.314 207.675 123.918 209.55 122.385C209.877 122.118 210.299 122.01 210.721 122.029L214.999 122.22C216.104 122.27 216.959 123.206 216.907 124.311L216.603 130.888C216.55 132.035 215.544 132.902 214.402 132.785L209.753 132.311C209.218 132.256 208.718 131.991 208.415 131.548Z" fill="black"/>
<path d="M153.713 122.511C153.579 123.687 152.283 124.341 151.258 123.75C150.014 123.035 150.218 121.182 151.588 120.754C152.723 120.399 153.848 121.329 153.713 122.511Z" fill="black"/>
<path d="M89.2978 127L87 63.8548C86.9998 54.5353 88.7398 38.7416 108.173 39.0032C127.607 39.2648 138.155 39.1122 141 39.0032" stroke="black" stroke-width="3" stroke-linecap="round"/>
<path d="M163 39H195.395C204.349 39.1635 212 43.0864 212 58.1245C212 73.1626 211.557 104.6 210.906 121" stroke="black" stroke-width="3" stroke-linecap="round"/>
<path d="M184 198.484C170.679 199.464 135.054 202.074 113.556 203C104.458 203 92.4042 201.824 90.9747 185.361L90 146" stroke="black" stroke-width="3" stroke-linecap="round"/>
<circle cx="151.5" cy="31.5" r="6" stroke="black" stroke-width="3"/>
<path d="M141.631 35.765C142.801 39.1597 141.144 41.6404 137.409 42.4565C135.622 42.8468 133.121 42.8809 128.314 44.5782C122.304 46.6998 121.167 52.7386 121.005 57.9613C120.875 62.1394 123.279 63.5104 127.502 63.6736C139.791 63.6192 166.113 64 173.14 64C180.448 64 181.511 61.2255 181.747 59.4302C182.917 50.5516 179.799 46.9923 177.038 45.7206C175.738 45.1222 171.938 43.6316 167.13 42.4565C162.323 41.2815 161.457 39.6819 161.933 37.397C163.102 31.7826 162.42 27.2237 161.933 25.646C161.392 23.4699 158.23 19.3136 149.915 20.097C139.52 21.0762 140.17 31.5216 141.631 35.765Z" stroke="black" stroke-width="3" stroke-linecap="round"/>
<path d="M198.378 119L199 59.5305C199 58.2467 198.259 56 195.24 56C192.135 56 185.16 56.107 182 56" stroke="black" stroke-width="3" stroke-linecap="round"/>
<path d="M120.285 56.0168H105.294C103.665 55.8552 100.536 56.7923 101.058 61.8332C101.579 66.8742 104.099 145.041 105.294 183.494C105.24 185.433 106.109 189.246 110.02 188.987C112.995 188.791 159.291 186.205 187 184.998" stroke="black" stroke-width="3" stroke-linecap="round"/>
<path d="M203.177 120L204 60.8071C204 59.0347 203.25 56.4566 199 57.1011" stroke="black" stroke-width="3" stroke-linecap="round"/>
<path d="M102 56C100.439 56 96.8491 56 97.0049 60.2158C97.1547 64.2676 98.5659 105.758 99.0342 125" stroke="black" stroke-width="3" stroke-linecap="round"/>
<path d="M99 135L100.452 185.198C100.613 186.968 101.258 189.543 109 188.899" stroke="black" stroke-width="3" stroke-linecap="round"/>
<path d="M118 84H149" stroke="black" stroke-width="3" stroke-linecap="round"/>
<path d="M118.412 94.543L184.139 94.2176" stroke="black" stroke-width="3" stroke-linecap="round"/>
<path d="M118.574 105.443L170.147 104.955" stroke="black" stroke-width="3" stroke-linecap="round"/>
<path d="M119.07 122.373L144.442 121.225" stroke="black" stroke-width="3" stroke-linecap="round"/>
<path d="M205 121C203.937 123.232 201.599 126.261 204.15 132" stroke="black" stroke-width="3" stroke-linecap="round"/>
<path d="M167.014 148C165.421 149.899 164.529 155.324 173.705 161.832C178.246 164.783 187.662 173.749 189 186" stroke="black" stroke-width="3" stroke-linecap="round"/>
<path d="M164.669 129C163.766 130.504 163.371 133.398 166.183 136.171C167.569 137.537 169.734 138.874 173 140" stroke="black" stroke-width="3" stroke-linecap="round"/>
<path d="M165.864 136C164.046 138.583 162.389 143.879 166.881 148.052C168.044 149.132 171.908 151.137 174 152" stroke="black" stroke-width="3" stroke-linecap="round"/>
<path d="M198.781 227C193.664 215.329 186.5 190.061 198.781 182.353C214.134 172.719 234.044 194.572 241 213.371" stroke="black" stroke-width="3" stroke-linecap="round"/>
<path d="M44 218.208C45.2 207.086 53.552 184.387 67.76 187.247C81.968 190.107 85.84 215.607 86 228" stroke="black" stroke-width="3" stroke-linecap="round"/>
</svg>
