<svg width="316" height="254" viewBox="0 0 316 254" fill="none" xmlns="http://www.w3.org/2000/svg">
<path d="M131.322 143.945C126.159 148.309 128.026 163.9 130.177 168.685L139.104 173C144.328 157.782 137.775 138.489 131.322 143.945Z" fill="#1E1A34"/>
<path d="M233.918 152C228.853 152 221.391 153.128 218.722 155.384L218.721 164.015L188.036 171.789C168.041 176.366 227.973 177.46 244.685 165.445C258.055 155.833 243.078 152.477 233.918 152Z" fill="#1E1A34"/>
<path d="M153 181V125" stroke="#1E1A34" stroke-width="3" stroke-linecap="round"/>
<path d="M131.675 80L109.293 111.575C108.142 113.198 108.862 115.471 110.736 116.137L114.549 117.491C115.745 117.916 116.545 119.048 116.545 120.318V160.52C116.545 161.648 117.178 162.681 118.183 163.193L152.155 180.495C152.794 180.821 153.529 180.907 154.226 180.737L216.71 165.514C218.054 165.187 219 163.983 219 162.599V117.13" stroke="#1E1A34" stroke-width="3" stroke-linecap="round"/>
<path d="M133.62 111.436C134.571 111.187 135.5 111.904 135.5 112.887V121.459C135.5 122.386 134.667 123.091 133.753 122.938C133.03 122.818 132.5 122.192 132.5 121.459V112.887C132.5 112.205 132.96 111.608 133.62 111.436Z" stroke="#1E1A34" stroke-width="3"/>
<path d="M152 64.08L162 58V76.72L152 78V64.08Z" fill="#1E1A34"/>
<path d="M156.715 124.156L132.654 83.672C131.558 81.8292 132.677 79.4995 134.793 79.2166L159.453 75.9185C160.927 75.7214 162.017 74.4804 162.017 73.0001L162.017 60.9359C162.017 59.467 163.091 58.2319 164.55 58.0217L173.303 56.761C175.132 56.4976 176.788 57.9262 176.788 59.7663L176.788 70.23C176.788 72.0154 178.353 73.4266 180.138 73.2517L193.604 71.9325C194.709 71.8242 195.793 72.3315 196.424 73.2517L222.417 111.196C223.657 113.006 222.62 115.456 220.465 115.804L159.828 125.617C158.595 125.816 157.355 125.234 156.715 124.156Z" fill="#1E1A34"/>
<path d="M116.879 139C111.667 145.795 103.948 152.425 101.185 153.521L100 159C113.918 154.89 117.768 146.397 116.879 139Z" fill="#1E1A34"/>
<path d="M96.2471 127.442C96.5565 138.782 94.9828 149.865 93.5703 156.512C93.3 157.784 94.2583 159 95.5584 159H99.6812C100.554 159 101.332 158.435 101.56 157.592C104.324 147.381 102.715 135.845 100.046 126.493C99.402 124.237 96.1831 125.097 96.2471 127.442Z" fill="#1E1A34"/>
<path d="M103 141C110.088 139.416 113.701 138.377 117 135" stroke="#1E1A34" stroke-width="3" stroke-linecap="round"/>
<path d="M68.8391 125C64.15 132.232 79.9237 148.266 96 141.274" stroke="#1E1A34" stroke-width="3" stroke-linecap="round"/>
<path d="M75.2092 108C74.0007 105.459 73.2377 102.503 75.2092 99.4248C79.3574 92.9472 88.9213 85.8028 106.521 90.5316C112.763 92.2085 117.062 94.661 120 97.5679" stroke="#1E1A34" stroke-width="3" stroke-linecap="round"/>
<path d="M76.6588 99C66.4714 100.333 60.885 113.253 68.6193 124.667C70.027 126.745 76.1363 129 79 129" stroke="#1E1A34" stroke-width="3" stroke-linecap="round"/>
<path d="M101 128C104.09 125.136 107.125 122.119 108 115" stroke="#1E1A34" stroke-width="3" stroke-linecap="round"/>
<path d="M95 133C92.963 132.389 87.9111 129.333 84 122" stroke="#1E1A34" stroke-width="3" stroke-linecap="round"/>
</svg>
