<svg width="316" height="254" viewBox="0 0 316 254" fill="none" xmlns="http://www.w3.org/2000/svg">
<path d="M130.865 106.837C134.944 120.284 136.984 121.476 142.918 127.433C142.918 121.545 144.02 111.663 144.02 107.548C163.449 107.548 179.846 100.267 185.616 96.6271C185.409 108.972 198.017 117.044 198.017 117.044C198.017 117.044 196.209 122.03 195.175 133.188C194.349 142.114 196.725 140.389 198.017 138.411C201.738 127.395 207.835 130.339 210.419 133.188C242.123 85.9008 193.367 76.7639 184.066 77.6344C177.039 72.1266 167.238 67.8103 160.348 67.1772C135.501 64.894 124.25 85.0334 130.865 106.837Z" fill="#1E1A34"/>
<path d="M197 146.594C193.698 165.186 171.537 178.555 155.545 163.494C139.553 148.433 142.753 120.865 144.461 108" stroke="#1E1A34" stroke-width="3" stroke-linecap="round"/>
<path d="M210.302 132C212.357 136.664 210.429 147 197 147" stroke="#1E1A34" stroke-width="3" stroke-linecap="round"/>
<path d="M204.888 135C205.242 135.825 204.959 137.781 201 139" stroke="#1E1A34" stroke-width="3" stroke-linecap="round"/>
<path d="M145 144C140.979 142.307 138.145 136.038 139.235 126" stroke="#1E1A34" stroke-width="3" stroke-linecap="round"/>
<path d="M169 155.759C164.872 156.901 165.133 153.758 162 151" stroke="#1E1A34" stroke-width="3" stroke-linecap="round"/>
<circle cx="2.5" cy="2.5" r="2.5" transform="matrix(-1 0 0 1 159 129)" fill="#1E1A34"/>
<ellipse cx="3" cy="2" rx="3" ry="2" transform="matrix(-1 0 0 1 184 130)" fill="#1E1A34"/>
<path d="M187 126C186.382 124.733 183.718 122.388 178 123.148" stroke="#1E1A34" stroke-width="3" stroke-linecap="round"/>
<path d="M161 123C159.788 122.245 156.491 121.189 153 123" stroke="#1E1A34" stroke-width="3" stroke-linecap="round"/>
<path d="M170.677 131C171.143 134.185 171.46 140.644 169 141" stroke="#1E1A34" stroke-width="3" stroke-linecap="round"/>
<path d="M110.592 87.3353L113.594 93.4421L105.923 91.4574C92.8488 100.862 79.2413 97.9713 75.4058 95.8848C66.6232 91.7627 57.396 81.9919 64.5665 71.6103C72.744 59.7709 92.5264 64.5366 100.086 67.4882C103.977 68.6587 112.126 72.0378 113.594 76.1904C115.061 80.343 112.204 85.3506 110.592 87.3353Z" stroke="#1E1A34" stroke-width="3" stroke-linecap="round"/>
<path d="M77 73H88" stroke="#1E1A34" stroke-width="3" stroke-linecap="round"/>
<path d="M75 79H100" stroke="#1E1A34" stroke-width="3" stroke-linecap="round"/>
<path d="M74 85L90 86" stroke="#1E1A34" stroke-width="3" stroke-linecap="round"/>
<path d="M140.405 156.773C141.565 159.718 144.797 166.066 148.445 167.9" stroke="#1E1A34" stroke-width="3" stroke-linecap="round"/>
</svg>
